<svg id="svg" version="1.1" xmlns="http://www.w3.org/2000/svg" xmlns:xlink="http://www.w3.org/1999/xlink" width="400" height="146.68255860150973" viewBox="0, 0, 400,146.68255860150973"><g id="svgg"><path id="path0" d="M56.281 4.762 C 45.497 7.374,40.069 27.261,46.799 39.500 C 52.758 50.337,65.572 45.657,69.160 31.333 C 72.880 16.483,66.052 2.396,56.281 4.762 M60.234 6.732 C 62.232 7.903,62.927 11.896,61.689 15.090 C 59.612 20.448,54.491 18.971,54.465 13.006 C 54.444 8.279,57.396 5.069,60.234 6.732 M50.500 18.422 C 54.534 20.504,52.918 30.300,48.535 30.330 C 44.812 30.355,43.626 22.735,46.814 19.277 C 47.870 18.131,49.296 17.801,50.500 18.422 M66.624 20.090 C 69.976 21.490,69.934 29.030,66.560 31.388 C 63.514 33.517,60.438 29.611,61.405 24.841 C 62.172 21.058,64.301 19.119,66.624 20.090 M58.416 22.238 C 59.732 23.633,59.574 26.304,58.087 27.790 C 56.111 29.766,54.065 26.917,55.118 23.657 C 55.743 21.722,57.298 21.053,58.416 22.238 M19.250 22.225 C 11.331 24.851,7.675 38.868,12.431 48.369 C 17.882 59.258,29.232 53.895,30.846 39.667 C 32.002 29.483,25.744 20.071,19.250 22.225 M22.417 23.549 C 25.454 25.265,24.397 32.833,21.120 32.833 C 17.490 32.833,16.837 25.337,20.307 23.503 C 21.108 23.081,21.607 23.091,22.417 23.549 M57.651 32.220 C 59.239 33.271,60.108 36.689,59.444 39.280 C 57.918 45.234,52.689 45.452,51.828 39.597 C 51.097 34.626,54.593 30.196,57.651 32.220 M15.657 33.326 C 17.195 34.421,17.760 37.602,16.844 40.012 C 15.221 44.283,11.145 42.853,11.113 38.000 C 11.088 34.312,13.524 31.807,15.657 33.326 M28.531 34.080 C 30.503 35.420,30.730 40.003,28.927 42.109 C 26.755 44.647,24.000 42.663,24.000 38.561 C 24.000 34.901,26.337 32.589,28.531 34.080 M21.464 35.593 C 22.744 36.490,22.663 39.788,21.344 40.494 C 20.781 40.796,19.922 40.699,19.540 40.292 C 17.801 38.435,19.522 34.233,21.464 35.593 M21.514 43.713 C 22.708 44.518,23.464 46.906,23.147 48.872 C 22.268 54.335,17.333 54.214,17.034 48.721 C 16.828 44.942,19.276 42.205,21.514 43.713 M60.000 49.607 C 59.587 49.740,58.087 50.149,56.667 50.517 C 55.246 50.885,52.246 51.705,50.000 52.339 C 47.754 52.973,44.529 53.858,42.833 54.305 C 41.137 54.752,37.987 55.611,35.833 56.214 C 33.679 56.817,30.417 57.718,28.583 58.215 C 24.266 59.387,19.661 60.650,12.333 62.670 C 9.079 63.568,6.060 64.394,5.625 64.506 L 4.833 64.710 4.833 87.430 L 4.833 110.149 7.292 110.921 C 8.644 111.346,10.800 112.017,12.083 112.411 C 13.367 112.805,16.179 113.673,18.333 114.339 C 20.488 115.005,23.488 115.915,25.000 116.362 C 27.571 117.121,30.021 117.875,41.167 121.336 C 43.596 122.090,46.596 123.000,47.833 123.359 C 49.071 123.718,51.958 124.604,54.250 125.330 C 56.542 126.055,58.883 126.766,59.453 126.910 C 60.023 127.055,60.604 127.217,60.745 127.271 C 60.974 127.359,61.000 123.329,61.000 88.351 C 61.000 66.891,60.944 49.341,60.875 49.350 C 60.806 49.359,60.413 49.475,60.000 49.607 M65.833 88.383 L 65.833 127.455 69.208 126.587 C 71.065 126.110,74.421 125.222,76.667 124.614 C 87.426 121.701,93.185 120.163,94.250 119.919 C 94.892 119.773,97.570 119.056,100.201 118.326 C 102.832 117.597,105.026 117.000,105.076 117.000 C 105.126 117.000,105.167 115.013,105.167 112.583 L 105.167 108.167 103.583 108.167 L 102.000 108.167 102.000 108.750 C 102.000 109.071,101.981 109.333,101.958 109.334 C 101.935 109.334,101.279 109.446,100.500 109.583 C 98.423 109.949,98.500 109.971,98.500 109.008 L 98.500 108.182 92.199 108.133 L 85.898 108.083 84.640 107.461 C 75.625 103.004,75.526 80.988,84.500 76.314 L 85.583 75.750 95.375 75.703 L 105.167 75.656 105.167 67.514 L 105.167 59.372 104.792 59.263 C 104.585 59.202,101.342 58.369,97.583 57.410 C 93.825 56.451,87.675 54.880,83.917 53.918 C 80.158 52.957,74.683 51.565,71.750 50.827 C 68.817 50.089,66.285 49.445,66.125 49.398 C 65.848 49.315,65.833 51.250,65.833 88.383 M71.607 57.332 C 72.510 57.515,73.419 57.704,73.625 57.752 C 73.981 57.835,74.000 57.918,74.000 59.420 L 74.000 61.000 73.542 60.999 C 73.024 60.999,69.704 60.376,69.480 60.237 C 69.399 60.188,69.333 59.439,69.333 58.573 C 69.333 56.732,69.145 56.835,71.607 57.332 M58.000 77.669 L 58.000 96.671 51.542 96.627 L 45.083 96.583 45.041 78.926 C 45.018 69.214,45.059 61.208,45.132 61.134 C 45.206 61.061,47.850 60.519,51.008 59.931 C 57.420 58.736,57.500 58.721,57.792 58.689 C 57.957 58.671,58.000 62.566,58.000 77.669 M100.917 62.895 L 101.917 63.096 101.964 64.798 C 101.990 65.734,101.980 66.500,101.941 66.500 C 101.902 66.500,101.141 66.350,100.250 66.167 C 99.359 65.983,98.601 65.833,98.565 65.833 C 98.529 65.833,98.500 65.079,98.500 64.156 L 98.500 62.480 99.208 62.587 C 99.598 62.646,100.367 62.785,100.917 62.895 M38.098 64.408 C 40.185 65.439,41.447 67.050,41.921 69.287 C 42.222 70.706,42.284 103.675,41.989 105.500 C 41.398 109.162,38.456 111.829,34.852 111.969 C 33.141 112.036,33.636 112.115,23.020 110.071 C 20.418 109.570,17.167 108.970,15.795 108.738 C 11.841 108.070,10.545 107.339,9.373 105.115 L 8.917 104.250 8.872 88.307 C 8.820 70.074,8.718 71.382,10.331 69.618 C 11.728 68.089,14.637 67.297,26.333 65.259 C 27.662 65.028,29.988 64.577,31.500 64.258 C 35.096 63.500,36.316 63.527,38.098 64.408 M73.458 66.085 L 74.000 66.182 74.000 67.748 C 74.000 69.644,74.194 69.527,71.667 69.152 C 70.521 68.981,69.527 68.840,69.458 68.838 C 69.322 68.833,69.281 65.774,69.415 65.640 C 69.491 65.564,72.215 65.864,73.458 66.085 M51.500 66.787 C 51.362 66.839,51.073 66.947,50.856 67.027 L 50.463 67.173 50.878 67.499 C 52.511 68.784,52.406 73.276,50.725 74.042 C 50.331 74.221,50.342 74.235,51.118 74.530 C 52.282 74.972,52.886 74.923,53.556 74.335 C 56.295 71.931,54.577 65.629,51.500 66.787 M100.523 69.697 L 102.000 69.893 102.000 71.530 C 102.000 73.411,102.203 73.266,99.977 72.970 L 98.500 72.773 98.500 71.137 C 98.500 69.256,98.297 69.400,100.523 69.697 M113.500 73.368 C 105.773 77.154,104.546 99.002,111.628 106.675 C 113.251 108.433,113.854 108.667,116.771 108.667 L 119.144 108.667 118.554 107.792 C 112.739 99.165,112.839 82.461,118.761 73.424 L 119.038 73.000 116.644 73.000 C 114.514 73.000,114.167 73.041,113.500 73.368 M72.167 74.557 L 73.917 74.750 73.965 76.294 C 74.022 78.158,74.182 78.061,71.500 77.792 L 69.417 77.583 69.369 75.958 L 69.321 74.333 69.869 74.349 C 70.170 74.358,71.204 74.451,72.167 74.557 M51.303 80.638 L 50.522 80.917 51.086 81.531 C 52.496 83.063,52.439 86.347,50.982 87.573 C 50.359 88.097,50.339 88.065,51.491 88.414 C 53.740 89.095,55.396 86.636,54.829 83.461 C 54.384 80.969,53.148 79.979,51.303 80.638 M86.750 80.761 C 82.028 83.208,81.280 97.022,85.592 102.146 C 86.478 103.200,86.157 103.167,95.474 103.167 L 103.965 103.167 103.641 102.125 C 101.681 95.836,101.515 86.392,103.265 80.792 C 103.397 80.370,87.562 80.340,86.750 80.761 M72.833 83.307 L 73.917 83.417 73.917 85.000 L 73.917 86.583 72.833 86.544 C 72.237 86.523,71.206 86.460,70.542 86.405 L 69.333 86.305 69.333 84.764 C 69.333 82.806,69.045 82.926,72.833 83.307 M120.875 88.083 C 120.877 88.450,120.911 88.580,120.951 88.373 C 120.991 88.166,120.990 87.866,120.948 87.706 C 120.906 87.547,120.874 87.717,120.875 88.083 M123.042 89.417 C 123.044 89.783,123.078 89.914,123.118 89.706 C 123.158 89.499,123.156 89.199,123.115 89.040 C 123.073 88.880,123.040 89.050,123.042 89.417 M135.727 90.833 C 135.727 91.704,135.755 92.060,135.789 91.625 C 135.824 91.190,135.824 90.477,135.789 90.042 C 135.755 89.606,135.727 89.962,135.727 90.833 M123.042 92.250 C 123.044 92.617,123.078 92.747,123.118 92.540 C 123.158 92.332,123.156 92.032,123.115 91.873 C 123.073 91.714,123.040 91.883,123.042 92.250 M74.000 94.255 L 74.000 95.843 71.708 95.796 L 69.417 95.750 69.369 94.208 L 69.321 92.667 71.660 92.667 L 74.000 92.667 74.000 94.255 M120.879 93.500 C 120.879 93.912,120.911 94.081,120.951 93.875 C 120.991 93.669,120.991 93.331,120.951 93.125 C 120.911 92.919,120.879 93.087,120.879 93.500 M74.000 103.405 C 74.000 105.266,74.208 105.122,71.417 105.197 L 69.417 105.250 69.369 103.719 L 69.321 102.189 70.036 102.094 C 70.892 101.980,71.938 101.902,73.125 101.862 L 74.000 101.833 74.000 103.405 M73.965 112.248 C 74.025 114.048,74.179 113.907,71.683 114.331 C 69.230 114.749,69.306 114.796,69.368 112.901 L 69.417 111.417 71.500 111.060 C 74.109 110.614,73.908 110.517,73.965 112.248 M102.000 113.500 C 102.000 114.417,101.961 115.167,101.914 115.167 C 101.866 115.167,101.285 115.308,100.622 115.481 C 99.959 115.653,99.208 115.843,98.952 115.902 L 98.488 116.009 98.536 114.394 L 98.583 112.779 100.167 112.319 C 101.037 112.066,101.806 111.853,101.875 111.846 C 101.944 111.839,102.000 112.583,102.000 113.500 M74.000 121.077 L 74.000 122.654 73.375 122.824 C 73.031 122.918,72.075 123.183,71.250 123.412 C 69.161 123.993,69.314 124.091,69.369 122.208 L 69.417 120.583 71.417 120.061 C 74.250 119.320,74.000 119.221,74.000 121.077 " stroke="none" fill="#b1aa16" fill-rule="evenodd"></path><path id="path1" d="M56.333 0.171 C 54.565 0.417,52.487 1.429,50.758 2.885 C 50.194 3.361,49.524 3.900,49.271 4.083 C 49.017 4.267,48.450 4.904,48.010 5.500 C 47.570 6.096,47.011 6.808,46.768 7.083 C 45.147 8.916,42.796 14.238,41.669 18.625 C 41.524 19.191,41.413 19.333,41.119 19.331 C 40.916 19.330,36.288 19.075,30.833 18.765 C 18.985 18.090,19.082 18.083,16.402 19.762 C 13.994 21.270,10.988 24.807,10.566 26.628 C 10.508 26.879,10.361 27.243,10.240 27.438 C 9.472 28.671,8.331 32.921,8.008 35.750 C 7.055 44.084,10.099 53.109,14.931 56.275 C 15.162 56.426,15.290 56.603,15.217 56.669 C 15.054 56.815,10.311 58.167,9.962 58.167 C 9.505 58.167,1.423 60.534,0.961 60.803 C -0.067 61.402,-0.008 59.683,0.040 87.642 L 0.083 113.142 0.429 113.613 C 0.798 114.115,2.886 114.924,5.876 115.723 C 6.678 115.937,7.370 116.147,7.412 116.190 C 7.454 116.232,6.441 118.361,5.161 120.922 C 2.430 126.385,2.483 126.165,3.875 126.170 C 4.448 126.172,5.846 126.278,6.982 126.405 L 9.048 126.635 9.440 126.169 C 9.656 125.913,10.254 125.114,10.768 124.393 C 11.283 123.673,11.845 122.950,12.017 122.787 C 12.480 122.348,13.667 120.745,13.667 120.558 C 13.667 120.469,14.023 120.000,14.458 119.515 L 15.250 118.632 16.583 118.998 C 17.317 119.198,20.392 120.132,23.417 121.072 C 26.442 122.012,29.367 122.899,29.917 123.042 C 30.467 123.185,32.942 123.940,35.417 124.719 C 37.892 125.498,40.217 126.208,40.583 126.296 C 40.950 126.384,43.244 127.101,45.681 127.889 C 48.118 128.677,50.620 129.456,51.241 129.619 L 52.370 129.917 52.919 131.417 C 53.857 133.982,54.763 136.521,55.297 138.083 C 55.579 138.908,56.295 140.861,56.887 142.423 C 57.480 143.985,58.060 145.579,58.176 145.965 C 58.325 146.462,58.476 146.667,58.696 146.667 C 59.026 146.667,64.671 144.852,64.865 144.683 C 64.929 144.628,64.236 141.996,63.325 138.833 C 61.565 132.721,61.574 132.757,61.839 132.920 C 62.320 133.217,64.655 133.004,66.500 132.494 C 68.612 131.911,70.750 131.315,73.667 130.498 C 74.721 130.203,75.883 129.893,76.250 129.810 C 76.617 129.727,77.254 129.583,77.667 129.490 C 78.477 129.307,82.202 128.285,86.801 126.983 C 88.388 126.534,89.850 126.164,90.051 126.161 C 90.252 126.158,91.313 125.900,92.408 125.588 C 94.368 125.030,94.403 125.026,94.629 125.348 C 94.755 125.528,95.115 125.955,95.428 126.296 C 95.742 126.637,95.999 126.992,95.999 127.085 C 96.000 127.177,96.521 127.889,97.157 128.668 C 97.793 129.446,98.655 130.580,99.072 131.187 C 100.237 132.882,99.976 132.865,102.743 131.412 L 105.175 130.135 103.860 127.526 C 101.367 122.580,101.451 122.998,102.896 122.753 C 103.251 122.693,104.151 122.469,104.896 122.255 C 105.641 122.041,106.877 121.698,107.643 121.493 C 108.971 121.138,109.059 121.085,109.518 120.361 L 110.000 119.601 110.000 115.780 C 110.000 112.647,110.039 111.992,110.219 112.141 C 110.339 112.240,111.130 112.590,111.978 112.917 L 113.519 113.512 121.551 113.464 L 129.583 113.417 131.083 112.754 C 141.846 107.996,144.095 81.498,134.583 71.519 C 131.362 68.140,131.141 68.083,121.083 68.084 C 112.914 68.084,112.604 68.115,110.878 69.079 C 110.464 69.310,110.099 69.500,110.068 69.500 C 110.037 69.500,109.990 66.550,109.964 62.945 L 109.917 56.390 109.454 55.784 C 108.984 55.167,108.673 55.035,106.917 54.706 C 106.458 54.620,103.385 53.826,100.088 52.941 C 96.790 52.057,93.949 51.333,93.775 51.333 C 93.494 51.333,87.834 49.849,87.695 49.739 C 87.664 49.715,88.230 49.107,88.952 48.389 C 92.976 44.388,95.530 38.935,96.942 31.333 C 97.369 29.037,97.377 21.595,96.955 19.333 C 95.382 10.897,91.809 5.328,86.676 3.313 L 85.063 2.680 74.323 1.494 C 60.918 0.014,58.657 -0.152,56.333 0.171 M60.920 4.738 C 71.068 7.800,73.762 28.791,65.425 39.842 C 62.881 43.215,61.415 44.262,57.846 45.253 L 55.609 45.875 54.268 45.610 C 48.270 44.429,44.052 37.453,43.719 28.165 C 43.210 13.976,51.975 2.039,60.920 4.738 M57.570 6.640 C 54.894 7.892,53.656 12.995,55.256 16.175 C 57.451 20.534,62.167 17.525,62.167 11.765 C 62.167 7.918,60.001 5.503,57.570 6.640 M47.705 18.792 C 43.931 21.341,44.359 29.588,48.293 30.116 C 51.146 30.498,53.487 25.554,52.410 21.420 C 51.709 18.728,49.569 17.533,47.705 18.792 M64.250 20.307 C 60.092 22.853,60.561 31.833,64.852 31.833 C 69.044 31.833,70.648 22.689,66.862 20.376 C 66.099 19.909,64.949 19.879,64.250 20.307 M23.250 22.119 C 31.170 24.622,33.699 40.528,27.616 49.583 C 22.406 57.340,13.939 55.201,11.095 45.410 C 7.570 33.274,14.787 19.445,23.250 22.119 M56.106 22.335 C 54.260 23.956,54.763 28.333,56.795 28.333 C 58.117 28.333,59.064 26.845,59.074 24.750 C 59.088 22.221,57.608 21.017,56.106 22.335 M20.167 23.699 C 17.703 25.369,17.535 30.861,19.903 32.325 C 22.041 33.646,24.391 30.833,24.122 27.275 C 23.902 24.364,21.881 22.537,20.167 23.699 M54.915 32.144 C 51.825 33.548,50.824 39.960,53.272 42.669 C 54.340 43.851,55.935 44.010,57.132 43.053 C 61.365 39.671,59.420 30.098,54.915 32.144 M13.667 33.187 C 11.501 34.048,10.554 37.915,11.849 40.615 C 13.515 44.088,17.167 41.949,17.167 37.500 C 17.167 34.612,15.439 32.482,13.667 33.187 M26.406 33.894 C 23.006 35.428,23.433 42.996,26.920 42.999 C 29.834 43.002,31.122 37.137,28.771 34.569 C 27.993 33.719,27.259 33.509,26.406 33.894 M20.019 35.772 C 19.805 35.922,19.490 36.353,19.319 36.730 C 18.412 38.727,19.737 41.414,21.125 40.395 C 23.113 38.938,22.020 34.371,20.019 35.772 M160.833 39.993 L 160.833 41.000 163.333 41.000 L 165.833 41.000 165.833 58.083 L 165.833 75.167 163.333 75.167 L 160.833 75.167 160.833 76.083 L 160.833 77.000 171.000 77.000 L 181.167 77.000 181.163 76.542 C 181.154 75.382,180.826 75.256,177.677 75.197 L 174.833 75.145 174.833 67.822 L 174.833 60.500 177.708 60.499 C 188.237 60.493,193.202 57.780,194.432 51.360 C 195.365 46.492,193.578 42.629,189.452 40.595 C 186.270 39.026,187.142 39.109,173.125 39.043 L 160.833 38.986 160.833 39.993 M212.408 39.578 C 212.275 39.896,212.167 40.252,212.166 40.370 C 212.166 40.487,211.820 41.446,211.398 42.500 C 210.042 45.884,208.833 49.038,208.833 49.193 C 208.833 49.275,208.046 51.317,207.083 53.731 C 206.121 56.144,205.333 58.185,205.333 58.268 C 205.333 58.432,204.595 60.356,203.019 64.302 C 202.459 65.706,201.999 66.943,201.997 67.052 C 201.996 67.161,201.288 69.012,200.424 71.167 L 198.852 75.083 196.926 75.130 L 195.000 75.177 195.000 76.089 L 195.000 77.000 200.939 77.000 L 206.877 77.000 206.783 76.298 C 206.643 75.250,206.429 75.167,203.883 75.167 C 201.818 75.167,201.675 75.146,201.829 74.875 C 201.920 74.715,202.400 73.533,202.897 72.250 C 203.394 70.967,204.080 69.204,204.423 68.333 C 204.765 67.462,205.114 66.453,205.198 66.090 C 205.282 65.728,205.455 65.203,205.582 64.924 C 205.709 64.645,205.926 64.134,206.065 63.790 L 206.318 63.163 212.448 63.206 L 218.579 63.250 219.096 64.750 C 219.380 65.575,220.263 67.823,221.057 69.745 C 221.850 71.668,222.502 73.355,222.504 73.495 C 222.506 73.635,222.652 74.069,222.829 74.458 L 223.150 75.167 220.992 75.167 L 218.833 75.167 218.833 76.083 L 218.833 77.000 227.333 77.000 L 235.833 77.000 235.833 76.283 C 235.833 75.275,235.657 75.167,234.008 75.165 L 232.583 75.162 232.054 73.790 C 231.555 72.496,230.628 70.330,229.743 68.388 C 229.527 67.914,229.204 67.089,229.025 66.555 C 228.846 66.021,228.310 64.683,227.834 63.583 C 226.561 60.639,225.667 58.464,225.667 58.308 C 225.667 58.232,224.946 56.501,224.065 54.460 C 223.184 52.420,222.387 50.525,222.293 50.250 C 222.199 49.975,221.390 47.987,220.495 45.833 C 219.600 43.679,218.616 41.261,218.309 40.459 L 217.750 39.002 215.200 39.001 L 212.650 39.000 212.408 39.578 M236.833 40.000 L 236.833 41.000 239.417 41.000 L 242.000 41.000 242.000 58.083 L 242.000 75.167 239.417 75.167 L 236.833 75.167 236.833 76.083 L 236.833 77.000 246.500 77.000 L 256.167 77.000 256.167 76.083 L 256.167 75.167 253.583 75.167 L 251.000 75.167 251.000 67.500 L 251.000 59.833 252.380 59.833 L 253.760 59.833 254.616 61.292 C 255.087 62.094,256.051 63.875,256.758 65.250 C 257.465 66.625,258.140 67.862,258.257 68.000 C 258.375 68.137,259.048 69.363,259.753 70.724 C 260.458 72.085,261.327 73.697,261.686 74.308 C 262.044 74.918,262.542 75.820,262.793 76.314 L 263.250 77.211 265.333 77.106 C 266.479 77.048,269.010 77.001,270.958 77.001 L 274.500 77.000 274.500 76.449 C 274.500 75.559,274.182 75.284,273.059 75.203 C 272.126 75.136,272.054 75.099,271.732 74.524 C 270.392 72.129,268.510 68.934,267.987 68.167 C 267.644 67.662,267.104 66.762,266.789 66.167 C 266.097 64.860,264.560 62.282,264.040 61.554 C 263.628 60.978,262.609 58.991,262.696 58.933 C 262.726 58.914,263.313 58.693,264.000 58.442 C 269.313 56.506,271.870 51.774,270.500 46.416 C 269.737 43.434,267.493 41.282,263.647 39.843 C 261.477 39.031,260.918 39.000,248.485 39.000 L 236.833 39.000 236.833 40.000 M275.438 40.542 C 275.386 41.390,275.304 44.468,275.253 47.383 L 275.162 52.682 276.267 52.633 L 277.372 52.583 278.706 49.000 C 279.439 47.029,280.123 45.174,280.226 44.878 C 280.950 42.792,283.343 41.135,285.788 41.028 L 287.333 40.960 287.333 58.063 L 287.333 75.167 284.333 75.167 L 281.333 75.167 281.333 76.083 L 281.333 77.000 291.917 77.000 C 297.737 77.000,302.500 76.964,302.500 76.920 C 302.500 75.575,301.643 75.167,298.825 75.167 L 296.500 75.167 296.500 58.063 L 296.500 40.959 297.958 41.032 C 299.698 41.120,300.627 41.484,301.765 42.527 C 303.130 43.777,303.771 44.944,304.724 47.917 C 304.871 48.375,305.301 49.631,305.679 50.708 L 306.368 52.667 307.434 52.667 L 308.500 52.667 308.500 50.458 C 308.499 49.244,308.450 46.169,308.390 43.625 L 308.280 39.000 291.905 39.000 L 275.531 39.000 275.438 40.542 M309.833 40.000 L 309.833 41.000 312.326 41.000 L 314.818 41.000 314.878 53.542 C 314.943 67.295,314.910 66.814,315.988 69.610 C 316.728 71.529,319.449 75.000,320.213 75.000 C 320.297 75.000,320.790 75.259,321.308 75.575 C 323.330 76.811,326.106 77.465,329.917 77.606 C 338.596 77.926,343.083 74.721,344.611 67.109 C 344.844 65.945,344.893 63.979,344.952 53.375 L 345.021 41.000 347.427 41.000 L 349.833 41.000 349.833 40.000 L 349.833 39.000 343.500 39.000 L 337.167 39.000 337.167 40.000 L 337.167 41.000 339.667 41.000 L 342.167 41.000 342.167 53.315 C 342.167 67.015,342.159 67.123,341.065 69.736 C 339.487 73.508,336.954 75.193,332.705 75.299 C 329.884 75.369,329.126 75.183,327.782 74.088 C 324.347 71.289,324.007 69.307,324.003 52.042 L 324.000 41.000 326.500 41.000 L 329.000 41.000 329.000 40.000 L 329.000 39.000 319.417 39.000 L 309.833 39.000 309.833 40.000 M350.500 40.000 L 350.500 41.000 353.083 41.000 L 355.667 41.000 355.667 58.083 L 355.667 75.167 353.083 75.167 L 350.500 75.167 350.500 76.083 L 350.500 77.000 357.000 77.000 L 363.500 77.000 363.500 76.571 C 363.500 75.534,362.739 75.167,360.596 75.167 L 358.667 75.167 358.667 63.792 L 358.668 52.417 359.851 54.750 C 360.502 56.033,361.402 57.730,361.850 58.520 C 362.299 59.310,362.667 60.037,362.667 60.135 C 362.667 60.305,364.361 63.544,365.473 65.500 C 365.759 66.004,365.995 66.505,365.997 66.614 C 365.999 66.722,366.539 67.809,367.198 69.030 C 367.858 70.251,369.121 72.675,370.005 74.417 L 371.614 77.583 372.336 77.583 L 373.057 77.583 373.792 75.917 C 374.988 73.202,375.835 71.173,376.102 70.388 C 376.239 69.982,376.600 69.110,376.903 68.450 C 378.013 66.034,379.500 62.528,379.500 62.327 C 379.500 62.213,379.648 61.812,379.828 61.435 C 380.393 60.258,382.617 55.104,382.749 54.667 C 382.983 53.893,386.076 46.702,386.249 46.528 C 386.296 46.482,386.333 52.907,386.333 60.806 L 386.333 75.167 383.833 75.167 L 381.333 75.167 381.333 76.083 L 381.333 77.000 390.667 77.000 L 400.000 77.000 400.000 76.492 C 400.000 75.424,399.452 75.167,397.174 75.167 L 395.167 75.167 395.167 58.083 L 395.167 41.000 397.583 41.000 L 400.000 41.000 400.000 40.000 L 400.000 39.000 393.188 39.000 L 386.377 39.000 385.918 40.042 C 384.304 43.701,383.270 46.150,383.158 46.583 C 383.086 46.858,382.528 48.208,381.918 49.583 C 381.307 50.958,380.509 52.833,380.144 53.750 C 379.383 55.663,378.776 57.118,377.348 60.452 C 376.790 61.755,376.333 62.898,376.333 62.992 C 376.333 63.086,376.095 63.696,375.804 64.347 C 375.161 65.787,375.217 65.833,373.675 62.608 C 373.098 61.403,371.854 58.842,370.910 56.917 C 369.966 54.992,368.442 51.879,367.524 50.000 C 366.605 48.121,365.006 44.878,363.969 42.793 L 362.083 39.002 356.292 39.001 L 350.500 39.000 350.500 40.000 M180.481 41.260 C 185.288 42.687,186.536 52.531,182.424 56.588 C 181.030 57.964,180.362 58.167,177.231 58.167 L 174.833 58.167 174.833 49.583 L 174.833 41.000 177.220 41.000 C 178.895 41.000,179.867 41.077,180.481 41.260 M257.306 41.554 C 261.665 43.839,262.625 52.311,258.922 55.813 C 257.367 57.285,256.545 57.563,253.542 57.639 L 251.000 57.702 251.000 49.337 L 251.000 40.971 253.708 41.030 C 256.295 41.085,256.457 41.109,257.306 41.554 M19.048 43.827 C 17.207 44.950,16.497 48.566,17.656 50.921 C 19.330 54.320,22.746 52.645,22.966 48.317 C 23.144 44.812,21.161 42.540,19.048 43.827 M213.832 51.167 C 214.674 53.229,215.494 55.367,215.655 55.917 C 215.816 56.467,216.145 57.379,216.386 57.943 C 216.627 58.508,217.011 59.464,217.238 60.068 L 217.652 61.167 212.416 61.167 L 207.181 61.167 207.777 59.542 C 208.105 58.648,208.427 57.692,208.494 57.417 C 208.560 57.142,208.883 56.242,209.211 55.417 C 210.993 50.937,211.972 48.356,212.079 47.863 C 212.145 47.559,212.221 47.334,212.250 47.363 C 212.278 47.393,212.990 49.104,213.832 51.167 M61.000 88.333 C 61.000 109.875,60.960 127.500,60.912 127.500 C 60.823 127.500,56.803 126.276,48.500 123.721 C 45.979 122.946,43.692 122.247,43.417 122.168 C 43.142 122.089,40.479 121.276,37.500 120.361 C 16.020 113.760,14.128 113.180,10.417 112.057 C 8.767 111.558,6.798 110.961,6.041 110.731 L 4.665 110.313 4.708 87.455 L 4.750 64.597 8.500 63.563 C 10.563 62.994,15.175 61.730,18.750 60.753 C 26.658 58.592,34.824 56.349,41.833 54.413 C 44.721 53.616,48.996 52.449,51.333 51.820 C 53.671 51.190,56.746 50.340,58.167 49.931 C 59.587 49.521,60.806 49.181,60.875 49.176 C 60.944 49.171,61.000 66.792,61.000 88.333 M70.151 50.241 C 72.406 50.832,76.800 51.964,79.917 52.756 C 94.708 56.518,97.353 57.192,101.072 58.153 C 103.266 58.720,105.122 59.222,105.197 59.269 C 105.272 59.315,105.333 63.020,105.333 67.501 L 105.333 75.649 95.792 75.700 C 84.917 75.759,85.441 75.692,83.322 77.285 C 77.508 81.656,76.090 95.706,80.690 103.374 C 82.000 105.558,83.430 106.863,85.339 107.616 C 85.987 107.872,86.892 107.921,92.333 107.997 L 98.583 108.083 98.634 108.973 C 98.672 109.636,98.742 109.840,98.910 109.776 C 99.033 109.728,99.737 109.601,100.475 109.494 L 101.815 109.298 101.866 108.690 L 101.917 108.083 103.625 108.036 L 105.333 107.988 105.333 112.488 C 105.333 116.605,105.308 117.001,105.042 117.140 C 104.881 117.223,103.400 117.643,101.750 118.072 C 100.100 118.501,96.800 119.381,94.417 120.027 C 92.033 120.672,88.283 121.671,86.083 122.247 C 81.264 123.507,69.598 126.625,65.958 127.625 C 65.681 127.702,65.667 125.755,65.667 88.436 C 65.667 58.784,65.714 49.167,65.860 49.167 C 65.966 49.167,67.897 49.650,70.151 50.241 M69.500 58.621 L 69.500 60.118 71.400 60.476 C 74.066 60.978,73.833 61.085,73.833 59.351 L 73.833 57.868 72.375 57.605 C 71.573 57.460,70.598 57.292,70.208 57.233 L 69.500 57.124 69.500 58.621 M56.417 59.100 C 54.924 59.401,48.328 60.593,46.583 60.876 L 45.250 61.093 45.208 78.798 L 45.165 96.504 51.541 96.460 L 57.917 96.417 57.959 77.625 C 57.993 62.639,57.959 58.837,57.792 58.849 C 57.677 58.858,57.058 58.971,56.417 59.100 M98.667 64.163 C 98.667 65.867,98.451 65.659,100.631 66.060 L 101.845 66.284 101.798 64.774 L 101.750 63.263 100.333 62.973 C 99.554 62.813,98.860 62.678,98.792 62.674 C 98.723 62.670,98.667 63.340,98.667 64.163 M33.417 64.025 C 32.958 64.110,29.171 64.846,25.000 65.661 C 20.829 66.476,16.373 67.340,15.098 67.581 C 11.828 68.201,10.514 69.004,9.545 70.976 L 9.083 71.917 9.083 88.083 L 9.083 104.250 9.542 105.119 C 10.892 107.681,11.609 107.930,23.917 110.101 C 25.750 110.425,28.599 110.947,30.248 111.261 C 32.023 111.600,33.764 111.833,34.514 111.833 C 38.105 111.833,41.254 109.167,41.826 105.643 C 42.069 104.143,42.063 70.734,41.819 69.415 C 41.104 65.547,37.539 63.260,33.417 64.025 M69.500 67.299 L 69.500 68.765 71.542 69.023 C 74.022 69.336,73.833 69.441,73.833 67.740 C 73.833 66.966,73.777 66.332,73.708 66.330 C 73.640 66.329,72.871 66.218,72.000 66.083 C 71.129 65.949,70.210 65.838,69.958 65.836 L 69.500 65.833 69.500 67.299 M53.500 66.815 C 55.266 68.088,55.501 72.391,53.901 74.162 C 53.132 75.014,52.636 75.104,51.157 74.664 L 49.956 74.306 50.451 74.005 C 52.390 72.826,52.525 68.591,50.657 67.528 C 49.987 67.147,50.020 67.096,51.208 66.693 C 52.327 66.314,52.843 66.342,53.500 66.815 M98.667 71.124 L 98.667 72.624 99.708 72.735 C 100.281 72.797,100.994 72.890,101.292 72.942 L 101.833 73.037 101.833 71.541 L 101.833 70.046 100.875 69.934 C 100.348 69.873,99.635 69.778,99.292 69.723 L 98.667 69.624 98.667 71.124 M129.126 73.149 C 137.225 77.324,138.240 100.076,130.646 107.245 C 123.951 113.567,116.789 98.655,119.602 84.250 C 121.187 76.131,125.395 71.226,129.126 73.149 M119.067 73.292 C 113.070 82.307,112.792 97.815,118.457 107.333 L 119.300 108.750 117.126 108.797 C 113.812 108.868,112.507 108.307,110.895 106.121 C 105.053 98.197,105.454 81.125,111.635 74.629 C 113.145 73.042,113.746 72.833,116.802 72.833 L 119.372 72.833 119.067 73.292 M126.247 74.556 C 124.915 75.161,123.228 77.728,122.434 80.359 C 118.680 92.798,122.722 109.749,128.771 106.932 C 129.733 106.485,130.043 106.173,129.406 106.295 C 126.979 106.759,124.297 102.375,123.414 96.500 C 121.867 86.211,124.650 75.823,129.083 75.341 L 129.917 75.250 129.260 74.842 C 128.471 74.351,127.005 74.212,126.247 74.556 M69.535 75.936 L 69.583 77.417 70.750 77.528 C 71.392 77.590,72.348 77.687,72.875 77.745 L 73.833 77.850 73.833 76.363 L 73.833 74.876 73.042 74.779 C 72.606 74.725,71.628 74.631,70.868 74.569 L 69.486 74.456 69.535 75.936 M53.560 80.669 C 55.921 82.741,55.141 88.667,52.508 88.667 C 51.967 88.667,51.429 88.530,50.178 88.074 C 50.019 88.016,50.130 87.893,50.511 87.702 C 52.137 86.889,52.508 83.303,51.128 81.732 C 50.855 81.421,50.532 81.167,50.409 81.167 C 49.809 81.167,50.101 80.826,50.957 80.527 C 52.346 80.043,52.881 80.072,53.560 80.669 M103.500 80.421 C 103.500 80.469,103.352 81.088,103.171 81.796 C 101.634 87.803,101.842 95.861,103.683 101.607 C 103.958 102.467,104.138 103.245,104.082 103.335 C 103.851 103.709,87.525 103.542,86.732 103.158 C 81.322 100.539,81.204 83.920,86.573 80.646 C 87.066 80.345,103.500 80.127,103.500 80.421 M69.500 84.738 L 69.500 86.143 70.375 86.232 C 70.856 86.280,71.831 86.364,72.542 86.417 L 73.833 86.514 73.833 85.031 L 73.833 83.549 72.558 83.441 C 71.857 83.382,70.882 83.333,70.392 83.333 L 69.500 83.333 69.500 84.738 M219.481 88.653 C 216.677 89.097,214.055 90.123,212.261 91.477 C 211.795 91.829,211.190 92.234,210.916 92.378 C 209.884 92.921,207.313 95.715,206.172 97.535 C 203.247 102.201,202.674 111.274,205.015 115.863 C 205.190 116.206,205.333 116.584,205.333 116.703 C 205.333 117.403,207.742 120.746,209.278 122.179 C 214.549 127.094,222.587 128.788,230.215 126.590 C 233.040 125.776,234.229 125.146,237.054 122.967 C 238.299 122.007,238.451 121.847,240.095 119.750 C 244.846 113.694,244.852 101.682,240.108 95.804 C 238.921 94.333,237.459 92.835,236.842 92.457 C 236.516 92.257,235.938 91.858,235.558 91.569 C 232.044 88.905,225.447 87.708,219.481 88.653 M160.500 89.833 L 160.500 90.833 163.000 90.833 L 165.500 90.833 165.500 107.917 L 165.500 125.000 163.000 125.000 L 160.500 125.000 160.500 125.917 L 160.500 126.833 167.185 126.833 L 173.869 126.833 173.762 126.375 C 173.503 125.268,172.883 125.000,170.581 125.000 L 168.500 125.000 168.500 112.250 C 168.500 105.237,168.523 99.500,168.552 99.500 C 168.580 99.500,169.349 100.377,170.260 101.448 C 171.171 102.519,172.442 103.991,173.083 104.719 C 173.725 105.447,174.481 106.352,174.764 106.731 C 175.047 107.110,175.891 108.067,176.639 108.857 C 177.388 109.648,178.000 110.361,178.000 110.443 C 178.000 110.524,178.657 111.301,179.459 112.170 C 180.262 113.039,181.105 114.013,181.333 114.333 C 181.561 114.654,182.302 115.517,182.980 116.250 C 183.659 116.983,184.447 117.891,184.732 118.266 C 185.017 118.642,185.887 119.683,186.667 120.581 C 187.446 121.478,188.938 123.196,189.983 124.398 C 191.027 125.600,191.964 126.715,192.064 126.875 C 192.292 127.238,192.803 127.234,194.750 126.853 L 196.250 126.559 196.292 108.696 L 196.335 90.833 198.834 90.833 L 201.333 90.833 201.333 89.831 L 201.333 88.829 194.792 88.873 L 188.250 88.917 188.200 89.875 L 188.150 90.833 190.742 90.833 L 193.333 90.833 193.333 102.680 L 193.333 114.527 192.458 113.573 C 191.977 113.049,191.471 112.454,191.333 112.253 C 190.890 111.601,188.931 109.333,188.811 109.333 C 188.748 109.333,188.361 108.865,187.952 108.292 C 187.542 107.719,186.637 106.650,185.939 105.917 C 185.242 105.183,184.670 104.508,184.668 104.417 C 184.666 104.325,183.980 103.500,183.143 102.583 C 182.306 101.667,181.430 100.654,181.196 100.333 C 180.963 100.013,180.420 99.375,179.989 98.917 C 179.559 98.458,178.842 97.628,178.395 97.071 C 177.949 96.514,176.871 95.233,176.000 94.225 C 175.129 93.217,173.743 91.592,172.920 90.613 L 171.424 88.833 165.962 88.833 L 160.500 88.833 160.500 89.833 M245.000 89.827 L 245.000 90.821 246.594 90.869 L 248.189 90.917 248.750 92.190 C 249.059 92.891,249.515 94.053,249.763 94.774 C 250.011 95.494,250.623 97.058,251.123 98.250 C 252.357 101.191,253.038 102.893,253.457 104.083 C 253.790 105.032,255.079 108.176,255.575 109.250 C 255.701 109.525,255.989 110.237,256.214 110.833 C 257.467 114.152,259.115 118.234,259.755 119.609 C 259.890 119.897,260.000 120.250,260.000 120.393 C 260.000 120.535,260.346 121.461,260.768 122.451 C 262.614 126.772,263.016 127.168,265.553 127.165 L 266.917 127.163 267.401 125.873 C 267.667 125.164,268.217 123.722,268.622 122.670 C 269.028 121.618,269.691 119.743,270.096 118.503 C 270.501 117.264,270.906 116.100,270.996 115.917 C 271.285 115.329,272.939 110.796,273.884 108.000 C 274.117 107.313,274.913 105.157,275.653 103.211 C 276.394 101.264,277.001 99.576,277.002 99.461 C 277.003 99.345,277.345 98.350,277.762 97.250 C 278.178 96.150,278.807 94.462,279.159 93.500 C 280.230 90.568,279.970 90.833,281.777 90.833 L 283.333 90.833 283.333 89.833 L 283.333 88.833 277.750 88.833 L 272.167 88.833 272.167 89.833 L 272.167 90.833 274.667 90.833 C 276.345 90.833,277.167 90.892,277.167 91.013 C 277.167 91.112,276.983 91.656,276.759 92.222 C 276.535 92.787,276.171 93.737,275.950 94.333 C 274.294 98.808,273.667 100.567,273.667 100.737 C 273.667 100.845,273.212 102.130,272.656 103.592 C 271.653 106.228,270.727 108.839,269.997 111.083 C 269.789 111.725,269.492 112.550,269.337 112.917 C 269.183 113.283,268.805 114.273,268.497 115.117 C 267.855 116.875,267.848 116.873,267.085 114.833 C 266.395 112.988,265.130 109.855,264.159 107.583 C 263.689 106.483,263.247 105.358,263.178 105.083 C 263.057 104.603,262.118 102.320,260.564 98.727 C 260.162 97.797,259.833 96.957,259.833 96.859 C 259.833 96.678,258.696 93.849,257.928 92.120 C 257.693 91.591,257.500 91.084,257.500 90.995 C 257.500 90.898,258.464 90.833,259.917 90.833 L 262.333 90.833 262.333 89.833 L 262.333 88.833 253.667 88.833 L 245.000 88.833 245.000 89.827 M283.667 89.833 L 283.667 90.833 286.072 90.833 L 288.477 90.833 288.537 103.125 C 288.596 115.252,288.602 115.439,288.981 117.083 C 290.578 124.025,295.129 127.200,303.833 127.446 C 310.372 127.630,314.359 125.915,316.683 121.917 C 318.356 119.038,318.500 117.524,318.500 102.817 L 318.500 90.833 321.083 90.833 L 323.667 90.833 323.667 89.833 L 323.667 88.833 317.333 88.833 L 311.000 88.833 311.000 89.833 L 311.000 90.833 313.512 90.833 L 316.025 90.833 315.956 103.042 C 315.880 116.460,315.878 116.491,314.765 119.558 C 312.242 126.513,302.240 127.522,299.189 121.129 C 297.777 118.172,297.668 116.845,297.667 102.708 L 297.667 90.833 300.250 90.833 L 302.833 90.833 302.833 89.833 L 302.833 88.833 293.250 88.833 L 283.667 88.833 283.667 89.833 M324.333 89.833 L 324.333 90.833 326.833 90.833 L 329.333 90.833 329.333 107.917 L 329.333 125.000 326.833 125.000 L 324.333 125.000 324.333 125.917 L 324.333 126.833 330.833 126.833 C 337.868 126.833,337.593 126.875,336.985 125.893 C 336.481 125.077,336.231 125.000,334.094 125.000 L 332.167 125.000 332.170 113.542 L 332.174 102.083 332.771 103.167 C 333.385 104.279,334.855 107.126,338.582 114.417 C 339.753 116.708,341.039 119.162,341.439 119.869 C 341.839 120.576,342.167 121.229,342.167 121.320 C 342.167 121.466,343.731 124.464,344.977 126.708 C 345.390 127.452,345.458 127.499,346.102 127.500 L 346.787 127.500 347.418 126.125 C 347.765 125.369,348.255 124.188,348.508 123.500 C 348.760 122.813,349.279 121.537,349.661 120.667 C 351.020 117.569,352.167 114.835,352.167 114.694 C 352.167 114.565,353.356 111.807,354.925 108.298 C 355.241 107.591,355.500 106.916,355.501 106.798 C 355.501 106.680,356.069 105.308,356.762 103.750 C 358.057 100.842,358.625 99.483,359.426 97.375 C 359.679 96.710,359.912 96.167,359.943 96.167 C 359.974 96.167,360.000 102.654,360.000 110.583 L 360.000 125.000 357.500 125.000 L 355.000 125.000 355.000 125.917 L 355.000 126.833 364.417 126.833 C 370.880 126.833,373.833 126.778,373.833 126.658 C 373.833 125.494,372.905 125.000,370.713 125.000 L 368.833 125.000 368.833 107.917 L 368.833 90.833 371.333 90.833 L 373.833 90.833 373.833 89.833 L 373.833 88.833 366.915 88.833 L 359.996 88.833 359.581 89.771 C 359.353 90.286,359.167 90.816,359.167 90.948 C 359.167 91.080,358.982 91.577,358.755 92.052 C 357.988 93.666,356.439 97.338,355.404 100.000 C 355.065 100.871,354.581 102.033,354.328 102.583 C 353.485 104.413,352.378 107.077,352.270 107.535 C 352.212 107.784,351.864 108.632,351.498 109.420 C 351.133 110.208,350.833 110.882,350.833 110.918 C 350.833 110.953,350.421 111.911,349.917 113.047 C 349.412 114.182,348.995 115.292,348.989 115.514 L 348.977 115.917 348.807 115.500 C 348.646 115.105,347.525 112.795,343.591 104.750 C 342.650 102.825,341.129 99.712,340.210 97.833 C 339.292 95.954,337.924 93.160,337.169 91.625 L 335.797 88.833 330.065 88.833 L 324.333 88.833 324.333 89.833 M226.438 90.841 C 231.438 92.561,233.480 97.483,233.487 107.833 C 233.492 115.503,232.221 120.620,229.674 123.178 C 225.799 127.070,218.373 125.812,215.832 120.833 C 213.495 116.254,213.017 104.526,214.906 98.083 C 215.121 97.350,215.345 96.541,215.403 96.286 C 216.349 92.146,222.051 89.331,226.438 90.841 M69.500 94.167 L 69.500 95.667 71.417 95.692 C 72.471 95.705,73.427 95.724,73.542 95.733 C 73.690 95.745,73.764 95.338,73.798 94.316 L 73.846 92.883 72.714 92.776 C 72.092 92.717,71.115 92.669,70.542 92.668 L 69.500 92.667 69.500 94.167 M70.542 102.123 L 69.500 102.183 69.500 103.692 L 69.500 105.202 71.042 105.094 C 71.890 105.035,72.865 104.945,73.208 104.895 L 73.833 104.804 73.833 103.402 L 73.833 102.000 72.708 102.032 C 72.090 102.050,71.115 102.091,70.542 102.123 M71.125 111.299 L 69.500 111.552 69.500 113.044 C 69.500 114.506,69.507 114.534,69.875 114.448 C 70.081 114.400,71.056 114.231,72.042 114.072 L 73.833 113.785 73.833 112.392 L 73.833 111.000 73.292 111.023 C 72.994 111.036,72.019 111.160,71.125 111.299 M101.000 112.193 C 100.679 112.283,100.023 112.469,99.542 112.607 L 98.667 112.857 98.667 114.345 C 98.667 115.164,98.723 115.833,98.792 115.832 C 98.860 115.831,99.292 115.716,99.750 115.577 C 100.208 115.438,100.865 115.248,101.208 115.156 L 101.833 114.987 101.833 113.494 C 101.833 112.672,101.777 112.007,101.708 112.015 C 101.640 112.023,101.321 112.103,101.000 112.193 M71.417 120.225 L 69.583 120.760 69.535 122.213 C 69.502 123.208,69.546 123.667,69.675 123.667 C 69.778 123.667,70.756 123.425,71.848 123.129 L 73.833 122.590 73.833 121.129 C 73.833 119.399,74.017 119.467,71.417 120.225 " stroke="none" fill="#040404" fill-rule="evenodd"></path><path id="path2" d="M46.908 13.183 C 46.671 13.651,46.506 14.061,46.540 14.095 C 46.574 14.129,46.803 13.747,47.049 13.245 C 47.295 12.744,47.461 12.333,47.418 12.333 C 47.374 12.333,47.145 12.716,46.908 13.183 M46.824 19.292 L 46.250 19.917 46.875 19.342 C 47.219 19.026,47.500 18.745,47.500 18.717 C 47.500 18.590,47.359 18.710,46.824 19.292 M63.073 21.042 L 62.583 21.583 63.125 21.094 C 63.630 20.638,63.743 20.500,63.615 20.500 C 63.586 20.500,63.342 20.744,63.073 21.042 M70.217 21.667 C 70.217 22.171,70.248 22.377,70.286 22.125 C 70.324 21.873,70.324 21.460,70.286 21.208 C 70.248 20.956,70.217 21.162,70.217 21.667 M20.711 21.953 C 20.964 21.991,21.339 21.990,21.544 21.951 C 21.749 21.911,21.542 21.880,21.083 21.881 C 20.625 21.882,20.457 21.915,20.711 21.953 M17.625 22.762 C 16.979 23.113,17.052 23.234,17.708 22.900 C 18.337 22.580,18.448 22.497,18.236 22.507 C 18.152 22.510,17.877 22.625,17.625 22.762 M43.872 23.833 C 43.872 24.154,43.906 24.285,43.948 24.125 C 43.990 23.965,43.990 23.702,43.948 23.542 C 43.906 23.381,43.872 23.512,43.872 23.833 M70.220 24.500 C 70.220 25.096,70.250 25.340,70.287 25.042 C 70.324 24.744,70.324 24.256,70.287 23.958 C 70.250 23.660,70.220 23.904,70.220 24.500 M26.333 24.250 C 26.644 24.571,26.936 24.833,26.982 24.833 C 27.028 24.833,26.811 24.571,26.500 24.250 C 26.189 23.929,25.897 23.667,25.851 23.667 C 25.805 23.667,26.022 23.929,26.333 24.250 M43.728 27.083 C 43.728 28.000,43.756 28.354,43.790 27.869 C 43.824 27.385,43.823 26.635,43.789 26.203 C 43.755 25.770,43.727 26.167,43.728 27.083 M61.217 26.500 C 61.217 27.004,61.248 27.210,61.286 26.958 C 61.324 26.706,61.324 26.294,61.286 26.042 C 61.248 25.790,61.217 25.996,61.217 26.500 M28.417 27.000 C 28.559 27.275,28.713 27.500,28.759 27.500 C 28.804 27.500,28.726 27.275,28.583 27.000 C 28.441 26.725,28.287 26.500,28.241 26.500 C 28.196 26.500,28.274 26.725,28.417 27.000 M18.056 28.167 C 18.056 28.854,18.085 29.135,18.121 28.792 C 18.157 28.448,18.157 27.885,18.121 27.542 C 18.085 27.198,18.056 27.479,18.056 28.167 M24.209 27.750 C 24.211 28.117,24.245 28.247,24.285 28.040 C 24.324 27.832,24.323 27.532,24.281 27.373 C 24.239 27.214,24.207 27.383,24.209 27.750 M50.500 29.364 C 50.087 29.740,49.900 29.968,50.083 29.872 C 50.397 29.706,51.480 28.659,51.323 28.674 C 51.283 28.677,50.913 28.988,50.500 29.364 M46.000 28.885 C 46.000 28.914,46.244 29.158,46.542 29.427 L 47.083 29.917 46.594 29.375 C 46.138 28.870,46.000 28.757,46.000 28.885 M48.125 30.284 C 48.331 30.324,48.669 30.324,48.875 30.284 C 49.081 30.245,48.913 30.212,48.500 30.212 C 48.087 30.212,47.919 30.245,48.125 30.284 M67.073 30.875 L 66.583 31.417 67.125 30.927 C 67.423 30.658,67.667 30.414,67.667 30.385 C 67.667 30.257,67.529 30.370,67.073 30.875 M55.625 31.784 C 55.831 31.824,56.169 31.824,56.375 31.784 C 56.581 31.745,56.413 31.712,56.000 31.712 C 55.587 31.712,55.419 31.745,55.625 31.784 M11.045 38.000 C 11.045 38.412,11.078 38.581,11.118 38.375 C 11.157 38.169,11.157 37.831,11.118 37.625 C 11.078 37.419,11.045 37.587,11.045 38.000 M51.714 38.417 C 51.716 38.875,51.748 39.043,51.786 38.789 C 51.825 38.536,51.824 38.161,51.784 37.956 C 51.744 37.751,51.713 37.958,51.714 38.417 M10.221 38.917 C 10.222 39.558,10.252 39.800,10.288 39.455 C 10.324 39.109,10.324 38.584,10.287 38.288 C 10.250 37.992,10.221 38.275,10.221 38.917 M49.000 42.583 C 49.591 43.179,50.111 43.667,50.157 43.667 C 50.203 43.667,49.757 43.179,49.167 42.583 C 48.576 41.987,48.055 41.500,48.010 41.500 C 47.964 41.500,48.409 41.987,49.000 42.583 M63.240 42.208 L 62.750 42.750 63.292 42.260 C 63.797 41.804,63.910 41.667,63.781 41.667 C 63.752 41.667,63.509 41.910,63.240 42.208 M54.625 45.618 C 54.831 45.657,55.169 45.657,55.375 45.618 C 55.581 45.578,55.413 45.545,55.000 45.545 C 54.587 45.545,54.419 45.578,54.625 45.618 M17.833 51.719 C 17.833 51.748,18.077 51.991,18.375 52.260 L 18.917 52.750 18.427 52.208 C 17.971 51.703,17.833 51.590,17.833 51.719 M69.406 58.570 C 69.415 59.892,69.467 60.237,69.667 60.291 C 69.845 60.339,69.859 60.317,69.715 60.215 C 69.590 60.126,69.491 59.476,69.455 58.494 L 69.396 56.917 69.406 58.570 M73.894 59.417 C 73.895 60.333,73.923 60.687,73.956 60.203 C 73.990 59.718,73.990 58.968,73.956 58.536 C 73.921 58.104,73.894 58.500,73.894 59.417 M45.040 78.782 C 45.018 88.516,45.056 96.515,45.125 96.558 C 45.238 96.628,45.237 84.061,45.123 67.417 C 45.099 63.933,45.061 69.048,45.040 78.782 M69.405 65.722 C 69.358 65.843,69.342 66.612,69.370 67.430 L 69.419 68.917 69.501 67.208 C 69.583 65.513,69.568 65.294,69.405 65.722 M71.542 65.948 C 71.702 65.990,71.965 65.990,72.125 65.948 C 72.285 65.906,72.154 65.872,71.833 65.872 C 71.512 65.872,71.381 65.906,71.542 65.948 M72.708 66.115 C 72.869 66.157,73.131 66.157,73.292 66.115 C 73.452 66.073,73.321 66.039,73.000 66.039 C 72.679 66.039,72.548 66.073,72.708 66.115 M73.868 67.694 C 73.844 68.800,73.768 69.332,73.625 69.390 C 73.462 69.455,73.463 69.477,73.630 69.487 C 73.961 69.507,74.018 69.174,73.958 67.570 L 73.902 66.083 73.868 67.694 M53.015 66.708 C 53.053 66.731,53.347 66.975,53.667 67.250 L 54.250 67.750 53.760 67.208 C 53.491 66.910,53.198 66.667,53.108 66.667 C 53.018 66.667,52.976 66.685,53.015 66.708 M42.080 87.500 C 42.080 97.079,42.100 100.998,42.125 96.208 C 42.150 91.419,42.150 83.581,42.125 78.792 C 42.100 74.002,42.080 77.921,42.080 87.500 M116.715 72.958 C 118.366 72.995,118.981 73.062,118.898 73.197 C 118.827 73.312,118.857 73.339,118.974 73.266 C 119.517 72.931,118.995 72.836,116.792 72.870 L 114.417 72.906 116.715 72.958 M69.407 75.958 L 69.417 77.583 70.043 77.601 L 70.670 77.618 70.091 77.549 L 69.512 77.481 69.455 75.907 L 69.398 74.333 69.407 75.958 M73.662 74.776 C 73.760 74.825,73.833 75.495,73.833 76.337 L 73.833 77.812 73.292 77.886 L 72.750 77.960 73.333 77.938 L 73.917 77.917 73.917 76.347 C 73.917 75.209,73.858 74.766,73.704 74.735 C 73.587 74.711,73.569 74.730,73.662 74.776 M82.491 77.792 L 81.917 78.417 82.542 77.842 C 82.885 77.526,83.167 77.245,83.167 77.217 C 83.167 77.090,83.026 77.210,82.491 77.792 M71.292 77.784 C 71.498 77.824,71.835 77.824,72.042 77.784 C 72.248 77.745,72.079 77.712,71.667 77.712 C 71.254 77.712,71.085 77.745,71.292 77.784 M90.250 80.454 C 97.506 80.570,103.461 80.572,103.391 80.458 C 103.348 80.390,99.737 80.350,95.365 80.371 C 90.993 80.391,88.692 80.429,90.250 80.454 M79.909 81.349 C 79.762 81.632,79.672 81.894,79.708 81.930 C 79.744 81.966,79.898 81.734,80.051 81.415 C 80.394 80.696,80.275 80.641,79.909 81.349 M69.405 83.222 C 69.358 83.343,69.345 84.112,69.375 84.930 L 69.431 86.417 69.466 84.804 C 69.495 83.425,69.542 83.180,69.792 83.115 C 70.065 83.043,70.065 83.037,69.786 83.019 C 69.623 83.009,69.451 83.100,69.405 83.222 M71.292 83.284 C 71.498 83.324,71.835 83.324,72.042 83.284 C 72.248 83.245,72.079 83.212,71.667 83.212 C 71.254 83.212,71.085 83.245,71.292 83.284 M73.542 83.438 C 73.791 83.512,73.833 83.739,73.833 85.002 L 73.833 86.479 73.292 86.553 L 72.750 86.627 73.333 86.605 L 73.917 86.583 73.917 85.002 C 73.917 83.544,73.891 83.419,73.583 83.387 C 73.324 83.360,73.315 83.372,73.542 83.438 M114.375 87.083 C 114.377 87.450,114.411 87.580,114.451 87.373 C 114.491 87.166,114.490 86.866,114.448 86.706 C 114.406 86.547,114.374 86.717,114.375 87.083 M120.875 89.250 C 120.877 89.617,120.911 89.747,120.951 89.540 C 120.991 89.332,120.990 89.032,120.948 88.873 C 120.906 88.714,120.874 88.883,120.875 89.250 M114.228 90.833 C 114.228 91.796,114.256 92.190,114.290 91.708 C 114.323 91.227,114.323 90.440,114.290 89.958 C 114.256 89.477,114.228 89.871,114.228 90.833 M120.872 92.333 C 120.872 92.654,120.906 92.785,120.948 92.625 C 120.990 92.465,120.990 92.202,120.948 92.042 C 120.906 91.881,120.872 92.013,120.872 92.333 M69.407 94.250 C 69.416 95.630,69.443 95.751,69.750 95.766 C 69.991 95.778,70.004 95.764,69.798 95.714 C 69.561 95.657,69.502 95.397,69.455 94.198 L 69.398 92.750 69.407 94.250 M73.894 94.250 C 73.895 95.167,73.923 95.520,73.956 95.036 C 73.990 94.552,73.990 93.802,73.956 93.369 C 73.921 92.937,73.894 93.333,73.894 94.250 M114.372 94.500 C 114.372 94.821,114.406 94.952,114.448 94.792 C 114.490 94.631,114.490 94.369,114.448 94.208 C 114.406 94.048,114.372 94.179,114.372 94.500 M73.894 103.417 C 73.895 104.333,73.923 104.687,73.956 104.203 C 73.990 103.718,73.990 102.968,73.956 102.536 C 73.921 102.104,73.894 102.500,73.894 103.417 M69.393 103.667 C 69.393 104.537,69.422 104.894,69.456 104.458 C 69.490 104.023,69.490 103.310,69.456 102.875 C 69.422 102.440,69.393 102.796,69.393 103.667 M91.208 103.292 C 93.569 103.318,97.431 103.318,99.792 103.292 C 102.152 103.265,100.221 103.244,95.500 103.244 C 90.779 103.244,88.848 103.265,91.208 103.292 M72.375 105.119 C 72.627 105.158,73.040 105.158,73.292 105.119 C 73.544 105.081,73.337 105.050,72.833 105.050 C 72.329 105.050,72.123 105.081,72.375 105.119 M69.958 105.284 C 70.165 105.324,70.502 105.324,70.708 105.284 C 70.915 105.245,70.746 105.212,70.333 105.212 C 69.921 105.212,69.752 105.245,69.958 105.284 M111.750 107.000 C 112.108 107.367,112.438 107.667,112.484 107.667 C 112.530 107.667,112.275 107.367,111.917 107.000 C 111.559 106.633,111.228 106.333,111.182 106.333 C 111.137 106.333,111.392 106.633,111.750 107.000 M89.386 108.125 C 91.111 108.152,93.886 108.152,95.553 108.125 C 97.219 108.098,95.808 108.075,92.417 108.075 C 89.025 108.075,87.661 108.098,89.386 108.125 M102.875 108.123 C 103.310 108.157,104.023 108.157,104.458 108.123 C 104.894 108.088,104.537 108.060,103.667 108.060 C 102.796 108.060,102.440 108.088,102.875 108.123 M73.637 110.797 C 73.800 110.911,73.844 111.349,73.804 112.468 C 73.774 113.302,73.809 113.925,73.882 113.852 C 74.135 113.598,73.942 110.784,73.667 110.709 C 73.469 110.656,73.463 110.674,73.637 110.797 M69.404 111.556 C 69.357 111.678,69.344 112.409,69.376 113.181 L 69.432 114.583 69.466 113.056 C 69.489 112.016,69.567 111.501,69.708 111.444 C 69.872 111.378,69.870 111.357,69.703 111.346 C 69.586 111.339,69.451 111.433,69.404 111.556 M73.894 121.083 C 73.895 122.000,73.923 122.354,73.956 121.869 C 73.990 121.385,73.990 120.635,73.956 120.203 C 73.921 119.770,73.894 120.167,73.894 121.083 M69.405 120.722 C 69.358 120.843,69.345 121.612,69.375 122.430 L 69.431 123.917 69.466 122.306 C 69.489 121.200,69.565 120.668,69.708 120.610 C 69.872 120.545,69.870 120.523,69.703 120.513 C 69.586 120.506,69.451 120.600,69.405 120.722 M59.917 127.167 C 60.100 127.245,60.362 127.310,60.500 127.310 C 60.658 127.310,60.627 127.257,60.417 127.167 C 60.233 127.088,59.971 127.023,59.833 127.023 C 59.676 127.023,59.707 127.076,59.917 127.167 " stroke="none" fill="#847c04" fill-rule="evenodd"></path><path id="path3" d="M57.792 4.454 C 58.090 4.491,58.577 4.491,58.875 4.454 C 59.173 4.417,58.929 4.387,58.333 4.387 C 57.737 4.387,57.494 4.417,57.792 4.454 M50.000 8.583 C 49.595 8.996,49.301 9.333,49.347 9.333 C 49.393 9.333,49.762 8.996,50.167 8.583 C 50.572 8.171,50.865 7.833,50.819 7.833 C 50.774 7.833,50.405 8.171,50.000 8.583 M66.744 9.625 C 67.001 10.015,67.243 10.333,67.282 10.333 C 67.402 10.333,66.764 9.319,66.513 9.112 C 66.383 9.005,66.487 9.235,66.744 9.625 M62.221 11.750 C 62.222 12.392,62.252 12.634,62.288 12.288 C 62.324 11.942,62.324 11.417,62.287 11.121 C 62.250 10.825,62.221 11.108,62.221 11.750 M60.073 17.375 L 59.583 17.917 60.125 17.427 C 60.630 16.971,60.743 16.833,60.615 16.833 C 60.586 16.833,60.342 17.077,60.073 17.375 M48.960 18.285 C 49.168 18.324,49.468 18.323,49.627 18.281 C 49.786 18.239,49.617 18.207,49.250 18.209 C 48.883 18.211,48.753 18.245,48.960 18.285 M70.212 20.167 C 70.212 20.579,70.245 20.748,70.284 20.542 C 70.324 20.335,70.324 19.998,70.284 19.792 C 70.245 19.585,70.212 19.754,70.212 20.167 M65.208 19.948 C 65.369 19.990,65.631 19.990,65.792 19.948 C 65.952 19.906,65.821 19.872,65.500 19.872 C 65.179 19.872,65.048 19.906,65.208 19.948 M45.909 20.682 C 45.762 20.966,45.672 21.227,45.708 21.263 C 45.744 21.300,45.898 21.068,46.051 20.748 C 46.394 20.029,46.275 19.974,45.909 20.682 M63.242 21.042 L 62.583 21.750 63.292 21.091 C 63.681 20.729,64.000 20.410,64.000 20.383 C 64.000 20.257,63.855 20.383,63.242 21.042 M70.394 23.083 C 70.395 24.000,70.423 24.354,70.456 23.869 C 70.490 23.385,70.490 22.635,70.456 22.203 C 70.421 21.770,70.394 22.167,70.394 23.083 M52.724 23.583 C 52.724 24.317,52.754 24.596,52.789 24.204 C 52.824 23.812,52.824 23.212,52.788 22.871 C 52.752 22.529,52.723 22.850,52.724 23.583 M15.167 24.583 C 14.762 24.996,14.468 25.333,14.514 25.333 C 14.560 25.333,14.928 24.996,15.333 24.583 C 15.738 24.171,16.032 23.833,15.986 23.833 C 15.940 23.833,15.572 24.171,15.167 24.583 M43.709 24.917 C 43.711 25.283,43.745 25.414,43.785 25.206 C 43.824 24.999,43.823 24.699,43.781 24.540 C 43.739 24.380,43.707 24.550,43.709 24.917 M69.048 25.250 C 69.049 25.708,69.081 25.876,69.120 25.623 C 69.158 25.369,69.157 24.994,69.117 24.789 C 69.078 24.584,69.046 24.792,69.048 25.250 M70.209 26.083 C 70.211 26.450,70.245 26.580,70.285 26.373 C 70.324 26.166,70.323 25.866,70.281 25.706 C 70.239 25.547,70.207 25.717,70.209 26.083 M29.012 27.917 C 29.012 28.008,29.119 28.271,29.250 28.500 C 29.381 28.729,29.488 28.842,29.488 28.750 C 29.488 28.658,29.381 28.396,29.250 28.167 C 29.119 27.938,29.012 27.825,29.012 27.917 M43.705 29.167 C 43.705 29.488,43.740 29.619,43.782 29.458 C 43.823 29.298,43.823 29.035,43.782 28.875 C 43.740 28.715,43.705 28.846,43.705 29.167 M64.542 31.948 C 64.702 31.990,64.965 31.990,65.125 31.948 C 65.285 31.906,65.154 31.872,64.833 31.872 C 64.512 31.872,64.381 31.906,64.542 31.948 M57.500 32.219 C 57.500 32.248,57.744 32.491,58.042 32.760 L 58.583 33.250 58.094 32.708 C 57.638 32.203,57.500 32.090,57.500 32.219 M53.740 32.875 L 53.250 33.417 53.792 32.927 C 54.297 32.471,54.410 32.333,54.281 32.333 C 54.252 32.333,54.009 32.577,53.740 32.875 M15.000 33.187 C 15.229 33.278,15.608 33.517,15.841 33.718 C 16.074 33.919,16.019 33.840,15.718 33.542 C 15.418 33.244,15.039 33.005,14.877 33.011 C 14.669 33.018,14.705 33.069,15.000 33.187 M12.553 33.875 C 11.997 34.463,11.591 35.146,11.721 35.277 C 11.766 35.322,11.855 35.195,11.919 34.994 C 11.982 34.794,12.298 34.338,12.620 33.982 C 13.328 33.198,13.274 33.113,12.553 33.875 M25.406 34.542 L 24.917 35.083 25.458 34.594 C 25.963 34.138,26.077 34.000,25.948 34.000 C 25.919 34.000,25.675 34.244,25.406 34.542 M19.512 36.106 C 19.322 36.347,19.169 36.629,19.172 36.731 C 19.175 36.833,19.260 36.767,19.362 36.583 C 19.463 36.400,19.660 36.119,19.799 35.958 C 19.938 35.798,20.008 35.667,19.955 35.667 C 19.901 35.667,19.702 35.864,19.512 36.106 M59.553 37.167 C 59.553 37.762,59.584 38.006,59.621 37.708 C 59.658 37.410,59.658 36.923,59.621 36.625 C 59.584 36.327,59.553 36.571,59.553 37.167 M17.205 37.500 C 17.205 37.821,17.240 37.952,17.282 37.792 C 17.323 37.631,17.323 37.369,17.282 37.208 C 17.240 37.048,17.205 37.179,17.205 37.500 M22.218 37.917 C 22.219 38.467,22.250 38.672,22.287 38.372 C 22.325 38.072,22.324 37.622,22.286 37.372 C 22.248 37.122,22.217 37.367,22.218 37.917 M18.872 38.167 C 18.872 38.487,18.906 38.619,18.948 38.458 C 18.990 38.298,18.990 38.035,18.948 37.875 C 18.906 37.715,18.872 37.846,18.872 38.167 M30.039 38.167 C 30.039 38.487,30.073 38.619,30.115 38.458 C 30.157 38.298,30.157 38.035,30.115 37.875 C 30.073 37.715,30.039 37.846,30.039 38.167 M19.013 39.176 C 19.006 39.319,19.117 39.582,19.259 39.760 C 19.514 40.078,19.516 40.078,19.365 39.750 C 19.281 39.567,19.170 39.304,19.119 39.167 C 19.039 38.951,19.025 38.952,19.013 39.176 M48.993 42.708 C 49.684 43.444,49.833 43.577,49.833 43.451 C 49.833 43.425,49.477 43.068,49.042 42.660 L 48.250 41.917 48.993 42.708 M14.083 42.333 L 13.417 42.453 14.000 42.474 C 14.321 42.485,14.696 42.422,14.833 42.333 C 15.106 42.157,15.068 42.157,14.083 42.333 M52.833 42.385 C 52.833 42.414,53.077 42.658,53.375 42.927 L 53.917 43.417 53.427 42.875 C 52.971 42.370,52.833 42.257,52.833 42.385 M26.542 43.115 C 26.702 43.157,26.965 43.157,27.125 43.115 C 27.285 43.073,27.154 43.039,26.833 43.039 C 26.512 43.039,26.381 43.073,26.542 43.115 M19.960 43.451 C 20.168 43.491,20.468 43.490,20.627 43.448 C 20.786 43.406,20.617 43.374,20.250 43.375 C 19.883 43.377,19.753 43.411,19.960 43.451 M21.749 44.167 C 22.539 45.091,22.550 45.101,22.369 44.750 C 22.275 44.567,21.984 44.229,21.724 44.001 L 21.250 43.585 21.749 44.167 M55.042 43.782 C 55.202 43.823,55.465 43.823,55.625 43.782 C 55.785 43.740,55.654 43.705,55.333 43.705 C 55.012 43.705,54.881 43.740,55.042 43.782 M55.208 45.782 C 55.369 45.823,55.631 45.823,55.792 45.782 C 55.952 45.740,55.821 45.705,55.500 45.705 C 55.179 45.705,55.048 45.740,55.208 45.782 M23.050 47.833 C 23.050 48.337,23.081 48.544,23.119 48.292 C 23.158 48.040,23.158 47.627,23.119 47.375 C 23.081 47.123,23.050 47.329,23.050 47.833 M11.845 47.583 C 11.845 47.675,11.952 47.938,12.083 48.167 C 12.214 48.396,12.322 48.508,12.322 48.417 C 12.322 48.325,12.214 48.063,12.083 47.833 C 11.952 47.604,11.845 47.492,11.845 47.583 M65.667 88.417 C 65.667 125.692,65.681 127.666,65.958 127.654 C 66.133 127.646,66.166 127.607,66.042 127.556 C 65.662 127.403,65.745 49.381,66.125 49.282 C 66.344 49.224,66.324 49.201,66.042 49.186 L 65.667 49.167 65.667 88.417 M25.744 51.708 L 24.917 52.583 25.792 51.756 C 26.605 50.988,26.743 50.833,26.619 50.833 C 26.592 50.833,26.199 51.227,25.744 51.708 M14.833 52.083 C 15.144 52.404,15.436 52.667,15.482 52.667 C 15.528 52.667,15.311 52.404,15.000 52.083 C 14.689 51.762,14.397 51.500,14.351 51.500 C 14.305 51.500,14.522 51.762,14.833 52.083 M18.907 52.571 C 19.109 52.735,19.517 52.824,19.990 52.810 L 20.750 52.786 19.917 52.682 C 19.458 52.624,18.971 52.517,18.833 52.443 C 18.696 52.369,18.729 52.427,18.907 52.571 M92.917 56.167 C 93.100 56.245,93.362 56.310,93.500 56.310 C 93.658 56.310,93.627 56.257,93.417 56.167 C 93.233 56.088,92.971 56.023,92.833 56.023 C 92.676 56.023,92.707 56.076,92.917 56.167 M105.167 67.467 L 105.250 75.750 105.293 67.593 C 105.317 63.107,105.280 59.380,105.210 59.310 C 105.140 59.240,105.121 62.911,105.167 67.467 M98.573 64.153 C 98.581 65.401,98.635 65.737,98.833 65.791 C 99.011 65.839,99.025 65.817,98.882 65.716 C 98.759 65.628,98.658 64.992,98.621 64.078 L 98.562 62.583 98.573 64.153 M101.796 64.291 C 101.877 66.269,101.946 66.464,101.973 64.792 C 101.988 63.898,101.944 63.167,101.875 63.166 C 101.806 63.166,101.771 63.672,101.796 64.291 M34.794 63.785 C 35.001 63.824,35.301 63.823,35.460 63.781 C 35.620 63.739,35.450 63.707,35.083 63.709 C 34.717 63.711,34.586 63.745,34.794 63.785 M4.744 64.708 C 4.700 64.823,4.684 75.154,4.707 87.667 L 4.750 110.417 4.833 87.458 C 4.879 74.831,4.896 64.500,4.870 64.500 C 4.844 64.500,4.787 64.594,4.744 64.708 M39.833 65.750 C 40.144 66.071,40.436 66.333,40.482 66.333 C 40.528 66.333,40.311 66.071,40.000 65.750 C 39.689 65.429,39.397 65.167,39.351 65.167 C 39.305 65.167,39.522 65.429,39.833 65.750 M98.571 69.722 C 98.524 69.845,98.508 70.576,98.536 71.347 L 98.586 72.750 98.668 71.125 C 98.749 69.510,98.735 69.296,98.571 69.722 M101.833 71.488 C 101.833 72.765,101.792 72.986,101.542 73.052 C 101.322 73.109,101.343 73.133,101.625 73.147 C 101.989 73.166,102.000 73.120,102.000 71.583 C 102.000 70.712,101.962 70.000,101.917 70.000 C 101.871 70.000,101.833 70.670,101.833 71.488 M8.913 88.083 C 8.913 96.608,8.934 100.071,8.958 95.779 C 8.983 91.487,8.983 84.512,8.958 80.279 C 8.934 76.046,8.913 79.558,8.913 88.083 M127.208 72.782 C 127.369 72.823,127.631 72.823,127.792 72.782 C 127.952 72.740,127.821 72.705,127.500 72.705 C 127.179 72.705,127.048 72.740,127.208 72.782 M100.375 72.948 C 100.535 72.990,100.798 72.990,100.958 72.948 C 101.119 72.906,100.987 72.872,100.667 72.872 C 100.346 72.872,100.215 72.906,100.375 72.948 M124.073 74.375 L 123.583 74.917 124.125 74.427 C 124.423 74.158,124.667 73.914,124.667 73.885 C 124.667 73.757,124.529 73.870,124.073 74.375 M130.750 74.500 C 131.108 74.867,131.438 75.167,131.484 75.167 C 131.530 75.167,131.275 74.867,130.917 74.500 C 130.559 74.133,130.228 73.833,130.182 73.833 C 130.137 73.833,130.392 74.133,130.750 74.500 M127.294 74.285 C 127.501 74.324,127.801 74.323,127.960 74.281 C 128.120 74.239,127.950 74.207,127.583 74.209 C 127.217 74.211,127.086 74.245,127.294 74.285 M111.240 75.042 L 110.750 75.583 111.292 75.094 C 111.590 74.825,111.833 74.581,111.833 74.552 C 111.833 74.423,111.696 74.537,111.240 75.042 M124.991 75.458 L 124.417 76.083 125.042 75.509 C 125.623 74.974,125.743 74.833,125.616 74.833 C 125.588 74.833,125.307 75.115,124.991 75.458 M52.417 80.318 C 52.783 80.379,53.196 80.488,53.333 80.560 C 53.471 80.632,53.438 80.573,53.260 80.429 C 53.082 80.285,52.669 80.176,52.343 80.188 L 51.750 80.208 52.417 80.318 M69.877 83.286 C 70.131 83.325,70.506 83.324,70.711 83.284 C 70.916 83.244,70.708 83.213,70.250 83.214 C 69.792 83.216,69.624 83.248,69.877 83.286 M72.460 83.451 C 72.668 83.491,72.968 83.490,73.127 83.448 C 73.286 83.406,73.117 83.374,72.750 83.375 C 72.383 83.377,72.253 83.411,72.460 83.451 M114.539 86.333 C 114.539 86.654,114.573 86.785,114.615 86.625 C 114.657 86.465,114.657 86.202,114.615 86.042 C 114.573 85.881,114.539 86.013,114.539 86.333 M71.711 86.453 C 71.964 86.491,72.339 86.490,72.544 86.451 C 72.749 86.411,72.542 86.380,72.083 86.381 C 71.625 86.382,71.457 86.415,71.711 86.453 M106.875 87.583 C 106.877 87.950,106.911 88.080,106.951 87.873 C 106.991 87.666,106.990 87.366,106.948 87.206 C 106.906 87.047,106.874 87.217,106.875 87.583 M135.709 87.917 C 135.711 88.283,135.745 88.414,135.785 88.206 C 135.824 87.999,135.823 87.699,135.781 87.540 C 135.739 87.380,135.707 87.550,135.709 87.917 M114.381 88.417 C 114.382 88.875,114.415 89.043,114.453 88.789 C 114.491 88.536,114.490 88.161,114.451 87.956 C 114.411 87.751,114.380 87.958,114.381 88.417 M102.065 90.750 C 102.065 91.942,102.092 92.407,102.124 91.785 C 102.156 91.162,102.156 90.187,102.123 89.618 C 102.091 89.049,102.064 89.558,102.065 90.750 M77.900 91.833 C 77.900 93.162,77.925 93.706,77.957 93.042 C 77.989 92.377,77.989 91.290,77.957 90.625 C 77.925 89.960,77.900 90.504,77.900 91.833 M106.718 90.750 C 106.719 91.300,106.750 91.505,106.787 91.205 C 106.825 90.906,106.824 90.456,106.786 90.205 C 106.748 89.955,106.717 90.200,106.718 90.750 M120.887 90.833 C 120.887 91.429,120.917 91.673,120.954 91.375 C 120.991 91.077,120.991 90.590,120.954 90.292 C 120.917 89.994,120.887 90.237,120.887 90.833 M82.560 91.833 C 82.560 92.704,82.588 93.060,82.623 92.625 C 82.657 92.190,82.657 91.477,82.623 91.042 C 82.588 90.606,82.560 90.962,82.560 91.833 M114.383 93.167 C 114.383 93.671,114.415 93.877,114.453 93.625 C 114.491 93.373,114.491 92.960,114.453 92.708 C 114.415 92.456,114.383 92.662,114.383 93.167 M72.711 92.786 C 72.964 92.825,73.339 92.824,73.544 92.784 C 73.749 92.744,73.542 92.713,73.083 92.714 C 72.625 92.716,72.457 92.748,72.711 92.786 M135.709 93.583 C 135.711 93.950,135.745 94.080,135.785 93.873 C 135.824 93.666,135.823 93.366,135.781 93.206 C 135.739 93.047,135.707 93.217,135.709 93.583 M106.875 94.083 C 106.877 94.450,106.911 94.580,106.951 94.373 C 106.991 94.166,106.990 93.866,106.948 93.706 C 106.906 93.547,106.874 93.717,106.875 94.083 M114.542 95.250 C 114.544 95.617,114.578 95.747,114.618 95.540 C 114.658 95.332,114.656 95.032,114.615 94.873 C 114.573 94.714,114.540 94.883,114.542 95.250 M70.964 95.790 C 71.448 95.824,72.198 95.823,72.631 95.789 C 73.063 95.755,72.667 95.727,71.750 95.728 C 70.833 95.728,70.480 95.756,70.964 95.790 M51.583 96.500 L 45.250 96.589 51.532 96.628 C 55.582 96.653,57.850 96.607,57.917 96.500 C 57.973 96.408,57.996 96.351,57.968 96.372 C 57.940 96.393,55.067 96.451,51.583 96.500 M83.845 99.417 C 83.845 99.508,83.952 99.771,84.083 100.000 C 84.214 100.229,84.322 100.342,84.322 100.250 C 84.322 100.158,84.214 99.896,84.083 99.667 C 83.952 99.438,83.845 99.325,83.845 99.417 M73.042 101.948 C 73.202 101.990,73.465 101.990,73.625 101.948 C 73.785 101.906,73.654 101.872,73.333 101.872 C 73.012 101.872,72.881 101.906,73.042 101.948 M70.708 102.115 C 70.869 102.157,71.131 102.157,71.292 102.115 C 71.452 102.073,71.321 102.039,71.000 102.039 C 70.679 102.039,70.548 102.073,70.708 102.115 M104.000 103.054 C 104.000 103.307,103.294 103.334,95.625 103.375 L 87.250 103.420 95.630 103.460 C 104.217 103.501,104.691 103.469,104.104 102.882 C 104.047 102.825,104.000 102.902,104.000 103.054 M71.208 105.115 C 71.369 105.157,71.631 105.157,71.792 105.115 C 71.952 105.073,71.821 105.039,71.500 105.039 C 71.179 105.039,71.048 105.073,71.208 105.115 M82.333 105.750 C 82.644 106.071,82.936 106.333,82.982 106.333 C 83.028 106.333,82.811 106.071,82.500 105.750 C 82.189 105.429,81.897 105.167,81.851 105.167 C 81.805 105.167,82.022 105.429,82.333 105.750 M111.667 107.083 C 111.978 107.404,112.270 107.667,112.315 107.667 C 112.361 107.667,112.144 107.404,111.833 107.083 C 111.522 106.763,111.230 106.500,111.185 106.500 C 111.139 106.500,111.356 106.763,111.667 107.083 M101.899 108.236 C 101.849 108.366,101.835 108.684,101.868 108.944 C 101.917 109.330,101.943 109.286,102.010 108.708 C 102.095 107.980,102.058 107.823,101.899 108.236 M105.240 112.500 C 105.240 115.021,105.263 116.052,105.291 114.792 C 105.320 113.531,105.320 111.469,105.291 110.208 C 105.263 108.948,105.240 109.979,105.240 112.500 M98.550 109.000 C 98.550 109.504,98.581 109.710,98.619 109.458 C 98.658 109.206,98.658 108.794,98.619 108.542 C 98.581 108.290,98.550 108.496,98.550 109.000 M115.792 108.790 C 116.456 108.822,117.544 108.822,118.208 108.790 C 118.873 108.759,118.329 108.733,117.000 108.733 C 115.671 108.733,115.127 108.759,115.792 108.790 M39.573 109.875 L 39.083 110.417 39.625 109.927 C 40.130 109.471,40.243 109.333,40.115 109.333 C 40.086 109.333,39.842 109.577,39.573 109.875 M73.042 110.948 C 73.202 110.990,73.465 110.990,73.625 110.948 C 73.785 110.906,73.654 110.872,73.333 110.872 C 73.012 110.872,72.881 110.906,73.042 110.948 M7.417 111.167 C 7.600 111.245,7.862 111.310,8.000 111.310 C 8.158 111.310,8.127 111.257,7.917 111.167 C 7.733 111.088,7.471 111.023,7.333 111.023 C 7.176 111.023,7.207 111.076,7.417 111.167 M33.788 111.954 C 34.084 111.990,34.609 111.991,34.955 111.955 C 35.300 111.919,35.058 111.889,34.417 111.888 C 33.775 111.887,33.492 111.917,33.788 111.954 M101.867 113.444 C 101.844 114.484,101.767 114.999,101.625 115.056 C 101.462 115.122,101.463 115.143,101.630 115.154 C 101.959 115.174,102.019 114.839,101.958 113.319 L 101.901 111.917 101.867 113.444 M98.560 114.333 C 98.560 115.204,98.588 115.560,98.623 115.125 C 98.657 114.690,98.657 113.977,98.623 113.542 C 98.588 113.106,98.560 113.462,98.560 114.333 M101.583 118.000 C 101.373 118.090,101.342 118.143,101.500 118.143 C 101.638 118.143,101.900 118.079,102.083 118.000 C 102.293 117.910,102.324 117.857,102.167 117.857 C 102.029 117.857,101.767 117.921,101.583 118.000 " stroke="none" fill="#575507" fill-rule="evenodd"></path><path id="path4" d="M126.370 73.071 C 118.945 75.466,116.573 94.861,122.478 104.894 C 127.964 114.215,135.994 104.957,135.614 89.750 C 135.361 79.586,130.934 71.599,126.370 73.071 M128.746 74.426 C 129.047 74.569,129.471 74.879,129.688 75.116 L 130.083 75.547 129.619 75.435 C 127.233 74.862,124.581 78.955,123.583 84.750 C 121.845 94.841,124.992 106.552,129.330 106.138 C 130.154 106.060,130.124 106.252,129.214 106.893 C 124.436 110.261,119.743 98.807,120.985 86.812 C 121.876 78.212,125.280 72.781,128.746 74.426 " stroke="none" fill="#ffffff" fill-rule="evenodd"></path></g></svg>